<svg id="Layer_1" data-name="Layer 1" xmlns="http://www.w3.org/2000/svg" xmlns:xlink="http://www.w3.org/1999/xlink" viewBox="0 0 823.85 767.28"><defs><style>.cls-1{fill:#172145;}.cls-2{fill:#27b1fc;}.cls-3{fill:url(#linear-gradient);}.cls-4{fill:url(#linear-gradient-2);}.cls-5{fill:url(#linear-gradient-3);}.cls-6{fill:url(#linear-gradient-4);}.cls-7{fill:url(#linear-gradient-5);}.cls-8{fill:url(#linear-gradient-6);}.cls-9{fill:url(#linear-gradient-7);}.cls-10{fill:url(#linear-gradient-8);}.cls-11{fill:url(#linear-gradient-9);}.cls-12{fill:url(#linear-gradient-10);}.cls-13{fill:url(#linear-gradient-11);}.cls-14{fill:url(#linear-gradient-12);}.cls-15{fill:url(#linear-gradient-13);}.cls-16{fill:url(#linear-gradient-14);}.cls-17{fill:url(#linear-gradient-15);}.cls-18{fill:url(#linear-gradient-16);}.cls-19{fill:url(#linear-gradient-17);}.cls-20{fill:url(#linear-gradient-18);}.cls-21{fill:url(#linear-gradient-23);}.cls-22{fill:url(#linear-gradient-24);}.cls-23{fill:url(#linear-gradient-25);}.cls-24{fill:url(#linear-gradient-26);}</style><linearGradient id="linear-gradient" x1="419.22" y1="388.61" x2="419.22" y2="281.79" gradientUnits="userSpaceOnUse"><stop offset="0" stop-color="#3ecdf8"/><stop offset="1" stop-color="#7956fb"/></linearGradient><linearGradient id="linear-gradient-2" x1="374.84" y1="388.61" x2="374.84" y2="281.79" xlink:href="#linear-gradient"/><linearGradient id="linear-gradient-3" x1="383.85" y1="388.61" x2="383.85" y2="281.79" xlink:href="#linear-gradient"/><linearGradient id="linear-gradient-4" x1="383.9" y1="388.61" x2="383.9" y2="281.79" xlink:href="#linear-gradient"/><linearGradient id="linear-gradient-5" x1="392.9" y1="388.61" x2="392.9" y2="281.79" xlink:href="#linear-gradient"/><linearGradient id="linear-gradient-6" x1="419.29" y1="388.61" x2="419.29" y2="281.79" xlink:href="#linear-gradient"/><linearGradient id="linear-gradient-7" x1="419.18" y1="388.61" x2="419.18" y2="281.79" xlink:href="#linear-gradient"/><linearGradient id="linear-gradient-8" x1="419.36" y1="388.61" x2="419.36" y2="281.79" xlink:href="#linear-gradient"/><linearGradient id="linear-gradient-9" x1="457.43" y1="388.61" x2="457.43" y2="281.79" xlink:href="#linear-gradient"/><linearGradient id="linear-gradient-10" x1="469.31" y1="388.61" x2="469.31" y2="281.79" xlink:href="#linear-gradient"/><linearGradient id="linear-gradient-11" x1="469.29" y1="388.61" x2="469.29" y2="281.79" xlink:href="#linear-gradient"/><linearGradient id="linear-gradient-12" x1="479.62" y1="388.61" x2="479.62" y2="281.79" xlink:href="#linear-gradient"/><linearGradient id="linear-gradient-13" x1="469.5" y1="388.61" x2="469.5" y2="281.79" xlink:href="#linear-gradient"/><linearGradient id="linear-gradient-14" x1="359.14" y1="388.61" x2="359.14" y2="281.79" xlink:href="#linear-gradient"/><linearGradient id="linear-gradient-15" x1="369.14" y1="388.61" x2="369.14" y2="281.79" xlink:href="#linear-gradient"/><linearGradient id="linear-gradient-16" x1="369.15" y1="388.61" x2="369.15" y2="281.79" xlink:href="#linear-gradient"/><linearGradient id="linear-gradient-17" x1="381.15" y1="388.61" x2="381.15" y2="281.79" xlink:href="#linear-gradient"/><linearGradient id="linear-gradient-18" x1="369.2" y1="388.61" x2="369.2" y2="281.79" xlink:href="#linear-gradient"/><linearGradient id="linear-gradient-23" x1="463.81" y1="388.61" x2="463.81" y2="281.79" xlink:href="#linear-gradient"/><linearGradient id="linear-gradient-24" x1="445.71" y1="388.61" x2="445.71" y2="281.79" xlink:href="#linear-gradient"/><linearGradient id="linear-gradient-25" x1="454.55" y1="388.61" x2="454.55" y2="281.79" xlink:href="#linear-gradient"/><linearGradient id="linear-gradient-26" x1="454.58" y1="388.61" x2="454.58" y2="281.79" xlink:href="#linear-gradient"/></defs><path class="cls-1" d="M252,464.73a32.31,32.31,0,0,1-10.47-5.56l6.47-9.06a26,26,0,0,0,16.52,5.56,15,15,0,0,0,7.5-1.6,4.86,4.86,0,0,0,2.78-4.34,4.46,4.46,0,0,0-2.59-4c-1.73-1-4.47-1.65-8.22-2.06q-10.89-1.22-15.95-5.1T243,427.43a14.15,14.15,0,0,1,2.74-8.61,17.64,17.64,0,0,1,7.68-5.78A29.6,29.6,0,0,1,264.79,411a37.16,37.16,0,0,1,10.85,1.6,31.56,31.56,0,0,1,9.33,4.49l-5.86,8.76a23.59,23.59,0,0,0-13.78-4.34A15.57,15.57,0,0,0,257.9,423a4.6,4.6,0,0,0-2.77,4.11,4.25,4.25,0,0,0,2.39,3.88c1.6.92,4.28,1.6,8,2.06q10.8,1.21,16.13,5.37A13.61,13.61,0,0,1,287,449.81a14.67,14.67,0,0,1-2.81,8.87,18,18,0,0,1-7.92,5.93,30.59,30.59,0,0,1-11.72,2.1A40.22,40.22,0,0,1,252,464.73Z"/><path class="cls-1" d="M323.37,460.27Q317,453.93,317,442.5V412.2H329.5v30.3q0,6.09,3.09,9.59t8.64,3.5a10.81,10.81,0,0,0,8.52-3.5q3.12-3.49,3.12-9.59V412.2h12.49v30.3q0,11.42-6.32,17.77t-17.81,6.36Q329.73,466.63,323.37,460.27Z"/><path class="cls-1" d="M438.29,465.49l-4-9.59H408.07l-4,9.59H390.79l23.9-53.29H428l23.75,53.29Zm-17-41.34-8.75,21h17.35Z"/><path class="cls-1" d="M511.3,412.2h13.77l-21.92,53.29H490L468.05,412.2h13.78L489,430.32l7.54,20.7,7.69-20.7Z"/><path class="cls-1" d="M565.42,455h29.39v10.51H553.32V412.2H594v10.43H565.42v10.81h27v10.05h-27Z"/><path class="cls-2" d="M326.51,489.18a7.62,7.62,0,0,1,3.15,3.06,10.13,10.13,0,0,1,0,9.22,7.62,7.62,0,0,1-3.15,3.06,9.94,9.94,0,0,1-4.73,1.07h-7.17V488.11h7.17A10.06,10.06,0,0,1,326.51,489.18Zm-1.19,11.44a5.2,5.2,0,0,0,1.35-3.77,5.73,5.73,0,0,0-.61-2.73,4.33,4.33,0,0,0-1.72-1.8,5,5,0,0,0-2.56-.64h-3.07V502h3.07A4.66,4.66,0,0,0,325.32,500.62Z"/><path class="cls-2" d="M355,499.82h-2.37v5.77h-4.1V488.11h8.52a7.16,7.16,0,0,1,3.32.74,5.26,5.26,0,0,1,2.2,2.08,6.17,6.17,0,0,1,.77,3.1,5.38,5.38,0,0,1-4,5.44l4.95,6.12h-4.87Zm3.58-7.56a2.83,2.83,0,0,0-2-.65h-4v4.92h4a2.94,2.94,0,0,0,2-.64,2.68,2.68,0,0,0,0-3.63Z"/><path class="cls-2" d="M385,504.88a8,8,0,0,1-3.3-3.21,10.59,10.59,0,0,1,0-9.64,8,8,0,0,1,3.3-3.21,11.43,11.43,0,0,1,9.91,0,8,8,0,0,1,3.3,3.21,10.59,10.59,0,0,1,0,9.64,8,8,0,0,1-3.3,3.21,11.34,11.34,0,0,1-9.91,0Zm7.74-3.2a4.64,4.64,0,0,0,1.87-1.93,6.61,6.61,0,0,0,0-5.8,4.7,4.7,0,0,0-1.87-1.93,5.95,5.95,0,0,0-5.56,0A4.74,4.74,0,0,0,385.3,494a6.7,6.7,0,0,0,0,5.8,4.68,4.68,0,0,0,1.86,1.93,5.95,5.95,0,0,0,5.56,0Z"/><path class="cls-2" d="M428.67,488.11h4.07v17.48h-3.67l-7.91-10.81,0,4.72v6.09h-4.08V488.11h3.68L428.72,499l-.05-4.67Z"/><path class="cls-2" d="M451.53,488.11h4.09v17.48h-4.09Z"/><path class="cls-2" d="M486,488.11H490v17.48h-3.67l-7.92-10.81.05,4.72v6.09h-4.07V488.11h3.67L486,499l0-4.67Z"/><path class="cls-2" d="M524.55,495.25v7.8a8.83,8.83,0,0,1-3.25,2.18A11.49,11.49,0,0,1,517,506a10.08,10.08,0,0,1-4.86-1.12,7.88,7.88,0,0,1-3.22-3.2,9.84,9.84,0,0,1-1.14-4.82,9.38,9.38,0,0,1,1.2-4.76,8.32,8.32,0,0,1,3.36-3.24,10.24,10.24,0,0,1,5-1.16,8.7,8.7,0,0,1,6.67,2.82L521.53,493a5.76,5.76,0,0,0-1.93-1.28,6.07,6.07,0,0,0-2.29-.45,5.3,5.3,0,0,0-4,1.51,5.65,5.65,0,0,0-1.46,4.11,6.32,6.32,0,0,0,.65,2.95,4.67,4.67,0,0,0,1.84,2,5.39,5.39,0,0,0,2.78.7,5.8,5.8,0,0,0,3.94-1.27v-2.68h-4.74v-3.27Z"/><path class="cls-3" d="M475.87,336.89c-6.67-4-13.38-8-20-12a2.35,2.35,0,0,0-2.82,0c-2.6,1.6-5.34,3-7.87,4.68a5.08,5.08,0,0,1-5.79.2,4,4,0,0,1-.48-6.7c1.85-1.22,3.73-2.39,5.67-3.42,1.36-.73,1.44-1.15.07-1.95q-9.51-5.54-18.95-11.16a1.83,1.83,0,0,0-1.81-.1,12.35,12.35,0,0,1-9.31,0,1.81,1.81,0,0,0-1.8.14c-6.63,4-13.27,7.92-20.3,12.1,2.59,1.54,4.86,2.89,7.12,4.25.67.4,1.55.74,1.6,1.58.1,1.71.64,3.64-1.16,4.83s-3.44,2.08-5.57.77c-3-1.83-6.09-3.47-9.06-5.33a2.13,2.13,0,0,0-2.61,0c-6.67,4-13.39,8-20.07,12-3.7,2.22-3.68,4.55,0,6.82l52,32.14a9,9,0,0,0,3.83,1.2c3.38.44,5.76-1.52,8.34-3.12q24.53-15.15,49.07-30.26C479.38,341.4,479.35,339,475.87,336.89Zm-30.24.76c-2.1,1.23-3.78,2.09-5.31,3.15-1.09.76-1.18-.33-1.6-.69-.72-.62.09-.85.45-1.08,1.13-.75,2.32-1.41,3.44-2.17C443.92,336,444.34,337.4,445.63,337.65Zm-3.36-1.77c-1.54.9-3.07,1.83-4.64,2.67-.91.47-1.31-.61-2.63-.74l4.58-3C440.85,334,441.31,335.44,442.27,335.88Zm-2.85-2.14c-1.77,1.08-3.25,2.1-4.84,2.91-1,.52-1.51-.62-2.48-1.06l4.39-2.8C437.77,332,438.24,333.38,439.42,333.74Zm-7.07,6.49c-4.24,2.51-8.35,4.94-12.43,7.41-.59.36-1,.1-1.42-.15-4.22-2.39-8.11-5.32-12.55-7.39,4.19-2.52,8.26-4.92,12.25-7.43.89-.55,1.42-.22,2.09.19Zm3.55-8.47c-1.39.9-2.82,1.73-4.16,2.7s-1.78-.53-3.23-.71c1.67-1,2.88-1.63,3.94-2.45C433.77,330.28,434.84,330.3,435.9,331.76Zm-3-2.09c-1.62,1-3.09,1.81-4.46,2.77-1.13.8-1.88-.08-2.31-.66-.72-1,.59-1,1-1.31a15.77,15.77,0,0,1,2.17-1.3C431,328.2,431,328.2,432.91,329.67Zm-3.48-1.9c-1.44.89-2.86,1.74-4.25,2.63-1.23.8-1.65-.51-2.53-.8C426.34,326.33,427.48,326,429.43,327.77Zm-15.34-15.06a9.08,9.08,0,0,1,5.23-1.21,10.16,10.16,0,0,1,4.87,1.15c1.8,1,1.88,2.64.24,3.88-2.48,1.87-8.15,1.77-10.52-.17C412.45,315.16,412.51,313.75,414.09,312.71Zm9.22,11c-3.71,3-3.71,3-7.95.12C418.32,320.82,418.71,320.81,423.31,323.68Zm-10.72,1.26c.54-.37,1.09-.79,1.77-.36a22.22,22.22,0,0,1,2.74,1.84,3.14,3.14,0,0,0,4.21.09,14.4,14.4,0,0,0,1.77-1.19c1.16-1.09,2.13-.84,3.21.4l-2.91,1.87c-1.11.71-2.16,1.85-3.53.4-.3-.32-.7-.14-1.09,0-.71.19-1.26,1.08-2.12.54-1.42-.9-2.84-1.82-4.23-2.78C412.06,325.47,412.3,325.14,412.59,324.94Zm3.52,4.26c-2.32,1.75-3.66,1.33-7.36-1.88C412.06,324.92,413.33,329,416.11,329.2Zm-10.33.06a1.56,1.56,0,0,1,1.75-.94,22.41,22.41,0,0,1,4.6,2.81,1,1,0,0,1,.2.31c-.11.5-.58.65-.93.92a1,1,0,0,1-1.36.06c-1-.76-2.18-1.36-3.25-2.09C406.39,330.05,405.43,330,405.78,329.26Zm3.89,3.87c-2.24,1.85-4,1.31-7.4-1.85C405.55,328.84,406.9,332.83,409.67,333.13Zm-7-.05a36.37,36.37,0,0,0,3.71,2.42c-3.38,2.39-4.73-1.49-7.35-1.59C400.17,332.26,401.17,331.84,402.63,333.08Zm-2.86,2.19a33.42,33.42,0,0,0,3.25,2.09c-2,1.74-2,1.73-7.1-1.67C397.07,334.2,398.28,334.05,399.77,335.27ZM396,337.16c.86.67,1.89,1.1,2.78,1.73.37.27,1.38.36.84,1.15-.37.54-.89,1.29-1.89.62-1.54-1-3.18-1.94-4.88-3C393.88,336.32,394.84,336.21,396,337.16Zm-8.14,3.71c1-.7,2-1.36,3-2.06a1.27,1.27,0,0,1,1.6,0c1.64,1,3.32,2,5,3a1.79,1.79,0,0,1-.17.21C393.39,344.89,392.67,344.81,387.9,340.87Zm7.4,4.64c-.54-.76.58-.85,1-1.2s1.1-.69,1.61-1.09c1.34-1,2.67-1.51,4.22.15l-4.63,2.82A1.61,1.61,0,0,1,395.3,345.51Zm2.77,1.65c1.59-1,3.13-2,4.74-2.93,1.11-.63,1.61.76,2.6.67,0,.17,0,.34-.05.51-1.16.7-2.38,1.33-3.46,2.14C400.53,348.59,399.36,348.6,398.07,347.16Zm3.45,2c1.55-1,3-2,4.57-2.92,1.29-.78,1.71.61,2.74,1.06a41,41,0,0,0-4,2.37C403.53,350.69,402.55,350.51,401.52,349.18Zm3,2.06,4.73-2.94c1.25-.78,1.59.67,2.72.94-1.78,1.07-3.31,2-4.83,2.91C406,352.89,405.46,351.93,404.56,351.24Zm3.26,1.92c1.56-.94,3.07-1.79,4.5-2.76,1.1-.74,1.82,0,2.28.65.64.86-.51.93-.92,1.24-.78.56-1.7.94-2.46,1.51C409.93,354.78,408.9,354.54,407.82,353.16Zm3.33,2.17c1.62-1.05,3.18-2.19,4.85-3.11,1-.54,1.46.86,2.38,1.24a35.89,35.89,0,0,0-3.95,2.41C413.08,356.94,412.15,356.65,411.15,355.33Zm3.13,2.07c1.56-1,3.11-2.07,4.63-3.14.48-.33.66.05,1,.25,1.4.91,2.8,1.81,4.2,2.73C420,360.89,419.2,360.91,414.28,357.4Zm9.69-1.56a10.51,10.51,0,0,0-4.27-2.3c1.16-1.23,2.14-2,3.72-.6a27,27,0,0,0,3.86,2.48C426.16,356.78,425.19,356.74,424,355.84Zm3-2.08c-.71-.56-1.58-.9-2.3-1.45-.39-.29-1.41-.39-.92-1.12s1.11-1.35,2.12-.72c1.49.91,3,1.79,4.64,2.77C429.4,354.71,428.3,354.83,427,353.76Zm3.14-2.12a29.3,29.3,0,0,0-3.65-2.39c3.56-2.35,4.86,1.77,7.61,1.73C432.69,352.48,431.6,352.94,430.12,351.64Zm3.58-1.84c-1.17-.89-2.49-1.58-4-2.55,3.51-2.39,4.83,1.47,7.4,1.78C436,350.54,435,350.8,433.7,349.8Zm-.82-4.22c1.06-1.4,2-1.75,3.34-.8s2.59,1.65,4.23,2.67C437,349.58,435.5,346,432.88,345.58Zm3.5-2.3c1.91-1.51,2-1.49,3.93,0,1,.74,2,1.37,3,2.05C441.63,347.08,442,347.18,436.38,343.28Zm11.95-.8c-3.87,2.4-3.87,2.4-7.62-.68,1.77-1,3.53-1.93,5.25-2.95a1,1,0,0,1,1.22.06c1.08.7,2.18,1.36,3.4,2.11C449.72,341.57,449,342,448.33,342.48Z"/><path class="cls-4" d="M380.16,265.66c0,.57-.54.67-1,.74-.95.17-1.91.29-2.77.42-2.49-.33-4.92-.5-6.46-2.74-.25-.35-.64-.76-.29-1.21s.71-.16,1.08-.06l8.46,2.08C379.63,265,380.17,265.08,380.16,265.66Z"/><path class="cls-5" d="M385.83,266.13c0,.19,0,.39,0,.58-1.35.18-2.68.37-4-.58Z"/><path class="cls-6" d="M386.34,263.93c0,1.59-1.55.74-2.41,1.08-.88-.33-2.46.45-2.47-1.05,0-1.2,1.35-1.56,2.52-1.53S386.34,262.79,386.34,263.93Z"/><path class="cls-7" d="M391.28,266.76c-1.22-.3-3.49.17-3.65-1.06s2.12-1.11,3.35-1.47c1.85-.56,3.75-.94,5.65-1.34.46-.1,1.08-.51,1.42,0s-.18,1.1-.52,1.54C396,266.5,393.69,266.62,391.28,266.76Z"/><path class="cls-8" d="M450.12,264.88q-4.32-1-8.66-2.05c-.36-.08-.79-.32-1,.12s.08.74.3,1.05c1.56,2.14,3.84,2.67,6.3,2.78a8.09,8.09,0,0,0,3.06-.39c.41-.14,1-.24,1-.78S450.53,265,450.12,264.88Zm2.56,1.49a3.87,3.87,0,0,0,3.8-.06A6.48,6.48,0,0,0,452.68,266.37Zm2-4.13c-1.14,0-2.49.37-2.5,1.63,0,1.51,1.53.85,2.42,1.13.88-.28,2.41.42,2.39-1.14C456.94,262.76,455.74,262.24,454.65,262.24Zm14.32.58c-.32-.41-.83-.14-1.27,0-2,.47-4,.86-6,1.44-1.17.34-3.34.28-3.19,1.44s2.28.83,3.5,1.11c2.47-.34,5.06-.18,6.67-2.55C468.94,263.82,469.37,263.32,469,262.82Zm0,0c-.32-.41-.83-.14-1.27,0-2,.47-4,.86-6,1.44-1.17.34-3.34.28-3.19,1.44s2.28.83,3.5,1.11c2.47-.34,5.06-.18,6.67-2.55C468.94,263.82,469.37,263.32,469,262.82Zm-14.32-.58c-1.14,0-2.49.37-2.5,1.63,0,1.51,1.53.85,2.42,1.13.88-.28,2.41.42,2.39-1.14C456.94,262.76,455.74,262.24,454.65,262.24Zm-2,4.13a3.87,3.87,0,0,0,3.8-.06A6.48,6.48,0,0,0,452.68,266.37Zm-2.56-1.49q-4.32-1-8.66-2.05c-.36-.08-.79-.32-1,.12s.08.74.3,1.05c1.56,2.14,3.84,2.67,6.3,2.78a8.09,8.09,0,0,0,3.06-.39c.41-.14,1-.24,1-.78S450.53,265,450.12,264.88Zm25.4-3.25a15.34,15.34,0,0,0-6.52-3.35,56.3,56.3,0,0,0-24.5-1,22,22,0,0,0-9.57,3.62c-3.63,2.6-3.7,6.11-.21,8.84a18.5,18.5,0,0,0,7.64,3.26c2.17.47,4.38.82,6.57,1.23a33.33,33.33,0,0,1-3.69,1.84,6.61,6.61,0,0,1-6.66-.2c-3.05-1.61-6.19-3-9.26-4.59a21.88,21.88,0,0,0-19-.71,57.08,57.08,0,0,0-9.31,4.85c-4.2,2.71-7.61.43-11.42-.84.7-.93,1.47-.67,2.14-.76,4.16-.53,8.21-1.44,11.73-3.84,3.9-2.65,3.94-6.24.19-9a17.06,17.06,0,0,0-5.78-2.73,57.61,57.61,0,0,0-24.89-.88c-3.6.59-7.13,1.59-9.9,4.2-2.57,2.42-2.57,5.17-.05,7.64a14.76,14.76,0,0,0,6.49,3.39,101.46,101.46,0,0,0,10.51,2c5.6,1,11.11,2.32,15.2,6.73a13.64,13.64,0,0,0,3.53,2.7c2.56,1.4,5.05,2.94,7.66,4.24,8.57,4.26,17.19,4.45,25.74,0,2.65-1.39,5.21-2.94,7.8-4.43.88-.51,1.92-.68,2.62-1.6a17.06,17.06,0,0,1,8.23-5.64c4.8-1.68,9.87-2.16,14.82-3.17,3.64-.74,7.28-1.55,10-4.32C478.08,266.68,478,264,475.52,261.63Zm-86.63,9.22a9.09,9.09,0,0,0,0-2c-.14-1.24-.6-1.94-2.05-1.31a7.48,7.48,0,0,1-5.69,0c-1.79-.63-2.4-.28-2.55,1.56-.28,3.17-.29,3.22-3.51,2.67-3.47-.59-6.91-1.33-9.84-3.42s-2.91-4.08,0-6.09c3.54-2.42,7.66-3.13,11.78-3.65a32,32,0,0,1,5.81-.45c6.27.15,11.68.58,16.8,2.76a11.5,11.5,0,0,1,3.65,2.19,2.8,2.8,0,0,1,.17,4.3,10.56,10.56,0,0,1-4.8,2.84,51.48,51.48,0,0,1-8.15,1.87C389.44,272.39,388.76,272.17,388.89,270.85Zm29.43,8.93c-.1.65-.7.88-1.27,1.06a6.7,6.7,0,0,1-3.65.27c-3.38-.88-6.16-2.85-8.94-5l.78-.59c2-1.5,3.95-2.13,6.28-.28a50,50,0,0,0,5.84,3.48C417.79,279,418.41,279.16,418.32,279.78Zm7.31-.54a3.63,3.63,0,0,1-3.37.14,122.09,122.09,0,0,1-11.14-6.51c3.07-1.41,5.77-1.87,8.55.28,1.88,1.45,4.1,2.45,6.1,3.76C427.15,277.8,427.07,278.52,425.63,279.24Zm48.77-11.68a11.79,11.79,0,0,1-3.77,2.35,37.29,37.29,0,0,1-8.81,2.32c-1.32.23-2.17,0-2-1.63a6.33,6.33,0,0,0-.08-1.94c-.24-1.14-.84-1.71-2.09-1.09a7.18,7.18,0,0,1-5.66.16c-1.89-.63-2.31-.38-2.45,1.57-.2,3-.21,3.06-3.2,2.53s-6.27-1.14-9.08-2.73c-4.19-2.37-4.23-4.81-.14-7.23a27.08,27.08,0,0,1,10.74-3.17c2.31-.28,4.65-.33,6.53-.46,5.52.21,10.56.56,15.37,2.37a12.2,12.2,0,0,1,4.67,2.71C475.85,264.78,475.85,266.12,474.4,267.56Zm-6.7-4.78c-2,.47-4,.86-6,1.44-1.17.34-3.34.28-3.19,1.44s2.28.83,3.5,1.11c2.47-.34,5.06-.18,6.67-2.55.28-.4.71-.9.31-1.4S468.14,262.68,467.7,262.78Zm-13.05-.54c-1.14,0-2.49.37-2.5,1.63,0,1.51,1.53.85,2.42,1.13.88-.28,2.41.42,2.39-1.14C456.94,262.76,455.74,262.24,454.65,262.24Zm-2,4.13a3.87,3.87,0,0,0,3.8-.06A6.48,6.48,0,0,0,452.68,266.37Zm-2.56-1.49q-4.32-1-8.66-2.05c-.36-.08-.79-.32-1,.12s.08.74.3,1.05c1.56,2.14,3.84,2.67,6.3,2.78a8.09,8.09,0,0,0,3.06-.39c.41-.14,1-.24,1-.78S450.53,265,450.12,264.88Z"/><path class="cls-9" d="M390.34,367.53c-.1-.18-.12-.25-.17-.29-1.6-1.31-3-1.81-4.76.08a18.65,18.65,0,0,1-5.31,3.58c-.5.26-1.12.73-1.51,0s.44-.83.81-1.08a69.79,69.79,0,0,1,6.92-4.6c-.07-.22-.07-.35-.14-.42-1.75-1.61-3.27-1.66-5,.23a20.68,20.68,0,0,1-4.31,3c-.62.4-1.5,1.22-2,.47s.63-1.21,1.16-1.6c2-1.49,4.12-2.9,6.17-4.33-.08-.2-.09-.34-.17-.41-1.55-1.46-2.83-1.42-4.47.18a30.37,30.37,0,0,1-5.33,3.56c-.48.3-1.16.6-1.52-.12s.43-.83.81-1.09c2.29-1.57,4.59-3.11,6.92-4.69-1.59-1.46-2.9-1.93-4.63-.28a36.06,36.06,0,0,1-5.13,3.52c-.59.39-1.37,1-1.88.21s.56-1,1-1.31c2.16-1.54,4.38-3,6.71-4.61a27.66,27.66,0,0,1-2.38-1.51c-.57-.43-.73,0-1.07.29a56.14,56.14,0,0,1-6.51,4.6c-.53.37-1.26.79-1.7.06s.46-1,.88-1.26c2.22-1.57,4.46-3.1,6.7-4.65a3.11,3.11,0,0,0-.26-.38c-1.67-1.45-3.06-1.3-4.73.29a32.3,32.3,0,0,1-5.18,3.43c-.5.31-1.2.57-1.55-.1s.45-.83.82-1.09c2.22-1.58,4.47-3.11,6.71-4.66a2,2,0,0,0-.21-.35c-1.53-1.4-2.82-1.42-4.46.14a34.39,34.39,0,0,1-5.35,3.53c-.53.34-1.13.63-1.52-.05s.39-.85.76-1.1c2.3-1.55,4.63-3.06,7-4.63-.88-.56-1.7-1.07-2.49-1.62-.38-.27-.49-.23-.86.14-2,2-4.52,3.25-6.85,4.77-.48.31-1.09.7-1.55,0-.59-.85.4-1,.76-1.21a37.39,37.39,0,0,1,5.07-3.27,2.76,2.76,0,0,0,1.81-3.15,24.22,24.22,0,0,1,0-2.55c18.51,11.47,37,23,55.66,34.38a10.15,10.15,0,0,0,10.91-.09q25.72-15.81,51.36-31.75a18.39,18.39,0,0,0,3.66-2.63,1.33,1.33,0,0,1,.25,1.42c-.49,2.44.43,4,2.69,5a27.33,27.33,0,0,1,4.09,2.63c.36.25,1.22.32.86,1s-1.07.49-1.67.11a48.39,48.39,0,0,1-5.55-3.6c-1.76-1.5-3.08-1.29-4.57.38,2.31,1.53,4.62,3,6.9,4.61.34.24,1.16.38.76,1.05s-1,.4-1.54.05a37.78,37.78,0,0,1-5.36-3.51c-1.79-1.67-3.16-1.26-4.81.2,2.19,1.48,4.39,2.93,6.54,4.43.46.33,1.53.51,1,1.31s-1.29.25-1.88-.13a43.57,43.57,0,0,1-5.33-3.59c-1.22-1.06-2.12-1.41-3.35-.22a5.44,5.44,0,0,1-1.11.64l8,5.48c-.77,1.1-1.51.66-2.16.25a35.85,35.85,0,0,1-4.82-3.28c-1.75-1.6-3.24-1.73-4.91.08,2.32,1.59,4.66,3.17,7,4.78.37.26,1.16.44.71,1.11-.34.49-1,.28-1.44,0a24.55,24.55,0,0,1-5.77-3.94c-1.41-1.38-2.39-1.27-3.63-.06a5,5,0,0,1-.93.54c2.3,1.56,4.56,3.07,6.78,4.63.41.3,1.4.43,1,1.14-.48.91-1.27.26-1.84-.09-1.78-1.07-3.79-1.93-5.21-3.38-1.8-1.84-3-1.21-4.55.23,2.29,1.61,4.55,3.18,6.78,4.79.39.28,1.34.45.78,1.21-.4.55-1.07.24-1.58-.1a36.34,36.34,0,0,1-5.12-3.54c-1.79-1.73-3.22-1.69-4.92.18,2.22,1.54,4.48,3.08,6.71,4.69.4.29,1.3.47.92,1.21s-1.16.32-1.66,0a33.57,33.57,0,0,1-5.14-3.52c-1.7-1.61-3.1-1.67-4.81.08,2.18,1.52,4.42,3,6.6,4.62.43.32,1.5.5.95,1.35s-1.2.16-1.71-.18a31.37,31.37,0,0,1-5.1-3.56c-1.71-1.71-3-1.36-4.65.21,2.17,1.51,4.34,3,6.46,4.51.46.34,1.53.57,1.14,1.27-.53.93-1.41.23-2-.16a24.3,24.3,0,0,1-4.8-3.3c-1.76-1.85-3.09-1.46-4.62.16,2.25,1.58,4.52,3.17,6.78,4.79.35.25,1.19.36.78,1s-1,.37-1.54,0a38.5,38.5,0,0,1-5.16-3.48c-1.73-1.58-3.18-1.88-5,.08,2.25,1.56,4.58,3.13,6.86,4.77.37.27,1.33.45.79,1.22s-1.06.23-1.56-.09a51.85,51.85,0,0,1-6-4c-1.16-1-1.92-1.17-3-.22a9.76,9.76,0,0,1-1.27.74c2.43,1.7,4.75,3.31,7,5,.35.25,1.16.44.66,1.12-.37.51-.94.22-1.41,0A35.4,35.4,0,0,1,432,379c-1-.85-1.59-1-2.57-.26a22.24,22.24,0,0,1-2,1.23c3.18,1.06,5.49,3.37,8.19,5,.29.18.48.48.1.77a1,1,0,0,1-1.26,0c-1.49-.93-3-1.78-4.45-2.8-1-.74-1.86-.93-2.9,0-3.74,3.36-12.76,3.46-16.33-.22-.7-.72-1.21-.55-2,0-1.47,1.08-3,2-4.58,3-.44.28-1,.61-1.35,0s.25-.8.56-1a42.92,42.92,0,0,1,7.37-4.83c0,.06,0-.08-.07-.15-1.87-1.53-3.52-1.88-5.47.17-1.3,1.38-3.2,2.19-4.84,3.24-.49.32-1.14.73-1.56.14-.54-.77.4-1,.79-1.22,2.23-1.57,4.49-3.09,6.73-4.61a1.49,1.49,0,0,0-.2-.42c-1.63-1.45-3-1.29-4.66.23a35.5,35.5,0,0,1-5.18,3.43c-.48.3-1.11.72-1.52,0s.38-.87.74-1.12c2.23-1.56,4.49-3.08,6.91-4.73-.85-.54-1.66-1-2.4-1.53-.58-.42-.76,0-1.09.32a52.86,52.86,0,0,1-6.55,4.56c-.51.31-1.16.67-1.58.1-.58-.78.37-1,.77-1.24,2.21-1.58,4.46-3.11,6.7-4.66a2.21,2.21,0,0,0-.2-.25c-1.56-1.31-2.88-1.73-4.61.1-1.44,1.52-3.46,2.49-5.25,3.66-.49.32-1.16.56-1.54-.12s.42-.84.77-1.09c2.23-1.56,4.5-3.06,6.75-4.59a1.26,1.26,0,0,0-.17-.35c-1.65-1.66-3.08-1.39-4.76.17a29.9,29.9,0,0,1-4.86,3.22c-.51.3-1.22.91-1.73.18s.47-1,.89-1.33C385.84,370.48,388.07,369,390.34,367.53Z"/><path class="cls-10" d="M389.5,295.44a9.21,9.21,0,0,1,2.72-1.84c2.37-1.5,4.4-3.29,4.73-6.3.13-1.17.69-.84,1.28-.52,2.62,1.43,5.26,2.84,7.84,4.34a21.24,21.24,0,0,0,9.27,2.65c7.65.57,14.91-.37,21.33-5,.94-.68,2-1.14,3-1.76,1.29-.8,2-.83,2.15,1,.21,2.22,1.79,3.69,3.53,4.9,1.2.83,2.51,1.51,4.09,2.45a24.36,24.36,0,0,1-2.67.66c-1.6.21-1.83,1-1.25,2.38,2.78,6.85,5.45,13.75,8.28,20.59.57,1.4.31,2-1,2.69-3,1.61-6,3.4-9,5.12-.34.2-.69.36-1,.56a1.53,1.53,0,0,1-2.33-.59c-.58-1,.29-1.43.91-1.82,2.33-1.42,4.64-2.88,7.06-4.14,1.56-.82,1.78-1.65,1-3.22q-4.29-8.75-8.35-17.59a3.62,3.62,0,0,0-2.91-2.09c-3.5-.86-6,.77-8.49,2.71-4.6,3.54-9.77,4.26-15.31,2.83-3-.78-5.37-2.83-7.85-4.58-1.82-1.28-6.25-1.54-8.1-.36a2.88,2.88,0,0,0-.78,1.07c-3.18,6.1-6,12.37-8.83,18.65-.51,1.12,0,1.67.84,2.18,2.4,1.42,4.81,2.83,7.19,4.29.75.46,1.75.92,1,2.1s-1.51.93-2.49.36c-3.19-1.87-6.38-3.76-9.63-5.52-1.33-.71-1.5-1.44-.95-2.77,2.65-6.42,5.22-12.88,7.81-19.32.27-.67.5-1.34.77-2,.37-.95.17-1.45-1-1.54A25.25,25.25,0,0,1,389.5,295.44Z"/><path class="cls-11" d="M465.46,286.93c0,.61-.73.7-1.21.8a57.11,57.11,0,0,1-7.81.88,16.21,16.21,0,0,1-5.64-.84,1.82,1.82,0,0,1-1.38-1.91c.16-.92,1.12-1,1.88-1A49.69,49.69,0,0,1,464.23,286C464.77,286.1,465.53,286.15,465.46,286.93Z"/><path class="cls-12" d="M471.59,287.68a.47.47,0,0,1-.47.5c-1.28,0-2.61.45-4.08-.45,1.47-.55,2.76-.27,4-.47A.48.48,0,0,1,471.59,287.68Z"/><path class="cls-13" d="M472,285.14c-.11,1.57-1.89.76-2.69,1.14-1.2-.1-2.65.14-2.7-1.18,0-1.54,1.47-1.8,2.7-1.86S472.08,283.79,472,285.14Z"/><path class="cls-14" d="M485.77,283.58c.39.71-.26,1.34-.76,1.82-1.9,1.8-4.3,2.24-6.78,2.42-.32,0-.65,0-1.37,0-1.05-.1-3.26.29-3.51-1.17-.2-1.17,2.14-1,3.34-1.39,2.4-.73,4.88-1.22,7.33-1.78C484.61,283.35,485.39,282.87,485.77,283.58Z"/><path class="cls-15" d="M491.73,281.14a17.82,17.82,0,0,0-4.08-2.24c-5.94-2.42-12.21-2.83-18-3.08-6.49.13-12.32.86-17.88,3.09a15.43,15.43,0,0,0-5.71,3.6c-2.26,2.41-2.18,5.3.24,7.54a13.55,13.55,0,0,0,4.15,2.48,40.53,40.53,0,0,0,11.31,2.71c1.27.14,1.69.54,1.6,1.77a4.42,4.42,0,0,0,1.85,4.08,6.88,6.88,0,0,0,6.85.72,4.86,4.86,0,0,0,3.15-4.92c0-1.17.43-1.54,1.56-1.65a46.79,46.79,0,0,0,8.22-1.49,19.81,19.81,0,0,0,6.67-3.09C495.48,287.84,495.48,284,491.73,281.14Zm-1.7,8.29c-3.12,2-6.67,2.84-10.26,3.48-1,.19-2.06.3-3.45.49-1,.26-1.36-.41-1.31-1.65a5.66,5.66,0,0,0-.29-2.09c-.33-.91-1-1.35-2-.79a8,8,0,0,1-6.23.25c-2.08-.6-2.76-.23-2.86,1.9-.11,2.49-.12,2.55-2.51,2.21a33.68,33.68,0,0,1-11.21-3.1c-4.07-2.12-4.23-5.37-.39-7.9,4.14-2.72,8.89-3.51,13.68-4a54.36,54.36,0,0,1,20.47,1.48,17.67,17.67,0,0,1,6.69,3C493.27,285.07,493.13,287.41,490,289.43Z"/><path class="cls-16" d="M365.37,286.84c-.07.85-1,.65-1.59.76-.76.15-1.54.18-2.22.26-2.75-.27-5.46-.32-7.56-2.31-.55-.52-1.38-1.13-1-1.94s1.27-.22,1.92-.07c3,.7,5.94,1.39,8.89,2.16C364.44,285.86,365.46,285.87,365.37,286.84Z"/><path class="cls-17" d="M371.4,287.52c.07,0,0,.46,0,.48a6.36,6.36,0,0,1-4.56-.21c.47-.31.62-.48.78-.49C368.88,287.22,370.18,286.9,371.4,287.52Z"/><path class="cls-18" d="M371.83,284.9c0,1.91-1.81.73-2.72,1.21-.94-.39-2.62.57-2.64-1.14,0-1.39,1.48-1.7,2.66-1.71S371.82,283.54,371.83,284.9Z"/><path class="cls-19" d="M389.16,286.15c.08,1.33-1.07,1.79-2.17,2.11a17.83,17.83,0,0,1-3.86.5c-2.77-.33-5.53-.61-8.28-1-.66-.1-1.67-.28-1.72-1-.06-1,1-.78,1.63-.9a55.87,55.87,0,0,1,12-1C387.66,284.9,389.08,284.67,389.16,286.15Z"/><path class="cls-20" d="M392.75,282.71a12.43,12.43,0,0,0-3.57-2.66c-6.23-3.24-13-3.95-20.08-4.18A70.33,70.33,0,0,0,357.54,277c-4.14.92-8.27,1.92-11.47,5-2.65,2.53-2.58,5.48.14,7.93a15.77,15.77,0,0,0,2.7,1.89c3.88,2.17,8.19,2.86,12.5,3.45,1.24.16,1.77.41,1.81,1.81.12,3.42,2.41,5.31,6.12,5.3,3.55,0,5.61-1.9,5.74-5.42,0-1.13.33-1.6,1.52-1.69a36.51,36.51,0,0,0,5.19-.77c3.95-.85,7.89-1.82,10.86-4.84C394.81,287.42,394.8,285,392.75,282.71Zm-2.65,6.5c-3.21,2.28-7,3.06-10.75,3.74-.45.08-.9.11-1.35.19-2.91.48-2.91.48-3.16-2.43-.17-1.91-.77-2.21-2.65-1.58a8.86,8.86,0,0,1-5.73,0c-2.06-.69-2.69-.37-2.94,1.76-.34,2.79-.37,2.84-3.12,2.39a32.61,32.61,0,0,1-10.25-2.94c-1.76-.94-3.77-1.9-3.85-4.26s2-3.49,3.8-4.48c4.14-2.24,8.7-2.94,13.3-3.42,1.94-.19,3.89-.24,5.27-.32,6.16.14,11.71.59,17,2.58a13.56,13.56,0,0,1,4.82,2.87C392.53,285.24,392.39,287.59,390.1,289.21Z"/><path class="cls-7" d="M397.53,264.47c-1.56,2-3.84,2.15-6.25,2.29-1.22-.3-3.49.17-3.65-1.06s2.12-1.11,3.35-1.47c1.85-.56,3.75-.94,5.65-1.34.46-.1,1.08-.51,1.42,0S397.87,264,397.53,264.47Z"/><path class="cls-4" d="M380.16,265.66c0,.57-.54.67-1,.74-.95.17-1.91.29-2.77.42-2.49-.33-4.92-.5-6.46-2.74-.25-.35-.64-.76-.29-1.21s.71-.16,1.08-.06l8.46,2.08C379.63,265,380.17,265.08,380.16,265.66Z"/><path class="cls-6" d="M386.34,263.93c0,1.59-1.55.74-2.41,1.08-.88-.33-2.46.45-2.47-1.05,0-1.2,1.35-1.56,2.52-1.53S386.34,262.79,386.34,263.93Z"/><path class="cls-5" d="M385.84,266.71c-1.35.18-2.68.37-4-.58h4C385.83,266.32,385.83,266.52,385.84,266.71Z"/><path class="cls-21" d="M468.66,264.22c-1.61,2.37-4.2,2.21-6.67,2.55-1.22-.28-3.33.17-3.5-1.11s2-1.1,3.19-1.44c2-.58,4-1,6-1.44.44-.1.95-.37,1.27,0S468.94,263.82,468.66,264.22Z"/><path class="cls-22" d="M451.08,265.61c0,.54-.59.64-1,.78a8.09,8.09,0,0,1-3.06.39c-2.46-.11-4.74-.64-6.3-2.78-.22-.31-.53-.66-.3-1.05s.68-.2,1-.12q4.34,1,8.66,2.05C450.53,265,451.11,265,451.08,265.61Z"/><path class="cls-23" d="M457,263.86c0,1.56-1.51.86-2.39,1.14-.89-.28-2.44.38-2.42-1.13,0-1.26,1.36-1.63,2.5-1.63S456.94,262.76,457,263.86Z"/><path class="cls-24" d="M456.48,266.31a3.87,3.87,0,0,1-3.8.06A6.48,6.48,0,0,1,456.48,266.31Z"/><path class="cls-11" d="M465.46,286.93c0,.61-.73.7-1.21.8a57.11,57.11,0,0,1-7.81.88,16.21,16.21,0,0,1-5.64-.84,1.82,1.82,0,0,1-1.38-1.91c.16-.92,1.12-1,1.88-1A49.69,49.69,0,0,1,464.23,286C464.77,286.1,465.53,286.15,465.46,286.93Z"/><path class="cls-14" d="M485,285.4c-1.9,1.8-4.3,2.24-6.78,2.42-.32,0-.65,0-1.37,0-1.05-.1-3.26.29-3.51-1.17-.2-1.17,2.14-1,3.34-1.39,2.4-.73,4.88-1.22,7.33-1.78.59-.14,1.37-.62,1.75.09S485.51,284.92,485,285.4Z"/><path class="cls-13" d="M472,285.14c-.11,1.57-1.89.76-2.69,1.14-1.2-.1-2.65.14-2.7-1.18,0-1.54,1.47-1.8,2.7-1.86S472.08,283.79,472,285.14Z"/><path class="cls-12" d="M471.59,287.68a.47.47,0,0,1-.47.5c-1.28,0-2.61.45-4.08-.45,1.47-.55,2.76-.27,4-.47A.48.48,0,0,1,471.59,287.68Z"/><path class="cls-19" d="M387,288.26a17.83,17.83,0,0,1-3.86.5c-2.77-.33-5.53-.61-8.28-1-.66-.1-1.67-.28-1.72-1-.06-1,1-.78,1.63-.9a55.87,55.87,0,0,1,12-1c.93,0,2.35-.21,2.43,1.27S388.09,287.94,387,288.26Z"/><path class="cls-16" d="M365.37,286.84c-.07.85-1,.65-1.59.76-.76.15-1.54.18-2.22.26-2.75-.27-5.46-.32-7.56-2.31-.55-.52-1.38-1.13-1-1.94s1.27-.22,1.92-.07c3,.7,5.94,1.39,8.89,2.16C364.44,285.86,365.46,285.87,365.37,286.84Z"/><path class="cls-18" d="M371.83,284.9c0,1.91-1.81.73-2.72,1.21-.94-.39-2.62.57-2.64-1.14,0-1.39,1.48-1.7,2.66-1.71S371.82,283.54,371.83,284.9Z"/><path class="cls-17" d="M371.39,288a6.36,6.36,0,0,1-4.56-.21c.47-.31.62-.48.78-.49,1.27-.08,2.57-.4,3.79.22C371.47,287.55,371.44,288,371.39,288Z"/></svg>